<svg width="361" height="54" viewBox="0 0 361 54" fill="none" xmlns="http://www.w3.org/2000/svg">
<g clip-path="url(#clip0_243_225)">
<path d="M179.203 47.2328C179.203 50.0153 176.93 52.3075 174.082 52.3075H6.32398C3.47609 52.3075 1.20312 50.0285 1.20312 47.2328V6.754C1.20312 3.98475 3.47609 1.6925 6.31061 1.6925H174.082C176.917 1.6925 179.203 3.945 179.203 6.754V47.2328Z" fill="black"/>
<path d="M40.2849 26.7085C40.2448 22.442 43.8146 20.3485 43.9751 20.269C41.9428 17.354 38.8141 16.9565 37.691 16.9168C35.0838 16.6253 32.5301 18.467 31.193 18.467C29.8159 18.467 27.7568 16.93 25.5373 16.983C22.6895 17.0228 20.0154 18.6658 18.5446 21.223C15.5096 26.3905 17.7692 34.049 20.6839 38.2493C22.1279 40.303 23.8259 42.6218 26.0321 42.529C28.2114 42.4363 29.027 41.151 31.6476 41.151C34.2415 41.151 34.9902 42.5158 37.2632 42.476C39.603 42.423 41.0737 40.3958 42.4776 38.3155C44.1489 35.957 44.8308 33.6383 44.8575 33.519C44.8041 33.4925 40.3116 31.7965 40.2849 26.682V26.7085ZM36.0063 14.1475C37.1696 12.69 37.9718 10.7423 37.7445 8.74152C36.0598 8.80777 33.9473 9.89427 32.7306 11.312C31.661 12.5575 30.6849 14.6245 30.939 16.5325C32.8376 16.665 34.7896 15.5785 36.0197 14.1475H36.0063ZM71.7186 42.2375H68.6835L67.0256 37.07H61.2362L59.6585 42.2375H56.7171L62.4262 24.615H65.956L71.7052 42.2375H71.7186ZM66.5042 34.8838L65.0334 30.286C64.8596 29.809 64.5655 28.696 64.1242 26.9735H64.0708C63.8969 27.7155 63.6162 28.8285 63.2284 30.286L61.7309 34.8838H66.5175H66.5042ZM86.4528 35.745C86.4528 37.8915 85.8645 39.5875 84.6879 40.8595C83.6182 41.9725 82.3213 42.529 80.757 42.529C79.0589 42.529 77.8556 41.9328 77.1069 40.727H77.0534V47.4183H74.2055V33.731C74.2055 32.3663 74.1654 30.975 74.0985 29.544H76.6122L76.7726 31.5713H76.8261C77.762 30.0475 79.2328 29.2923 81.1447 29.2923C82.6556 29.2923 83.9124 29.9018 84.9285 31.081C85.9313 32.2735 86.4394 33.837 86.4394 35.7715L86.4528 35.745ZM83.5514 35.8378C83.5514 34.5923 83.2572 33.5853 82.6957 32.7903C82.0806 31.929 81.2517 31.5183 80.2088 31.5183C79.5135 31.5183 78.8718 31.7568 78.2968 32.2205C77.7219 32.6843 77.3609 33.2805 77.1737 34.0358C77.0935 34.3935 77.04 34.6718 77.04 34.897V37.017C77.04 37.9445 77.3342 38.7395 77.9091 39.3623C78.4706 39.9983 79.2194 40.3163 80.1286 40.3163C81.1982 40.3163 82.0405 39.9188 82.6422 39.0973C83.2439 38.2758 83.538 37.1893 83.538 35.851L83.5514 35.8378ZM101.214 35.745C101.214 37.8915 100.625 39.5875 99.4354 40.8595C98.3925 41.9725 97.0688 42.529 95.5045 42.529C93.8198 42.529 92.6031 41.9328 91.8678 40.727H91.8277V47.4183H88.9798V33.731C88.9798 32.3663 88.9397 30.975 88.8728 29.544H91.3731L91.5335 31.5713H91.587C92.5229 30.0475 93.9669 29.2923 95.9056 29.2923C97.4165 29.2923 98.6866 29.9018 99.6894 31.081C100.706 32.2735 101.214 33.837 101.214 35.7715V35.745ZM98.3123 35.8378C98.3123 34.5923 98.0449 33.5853 97.4566 32.7903C96.8282 31.929 96.0126 31.5183 94.9697 31.5183C94.2611 31.5183 93.6326 31.7568 93.0577 32.2205C92.4962 32.6843 92.1218 33.2805 91.948 34.0358C91.8544 34.3935 91.8143 34.6718 91.8143 34.897V37.017C91.8143 37.9445 92.0817 38.7395 92.67 39.3623C93.2583 39.9983 94.007 40.3163 94.9162 40.3163C95.9858 40.3163 96.8282 39.9188 97.4298 39.0973C98.0181 38.2758 98.3257 37.1893 98.3257 35.851L98.3123 35.8378ZM117.713 37.2953C117.713 38.7925 117.178 40.0115 116.135 40.9655C114.972 41.9858 113.354 42.5025 111.282 42.5025C109.37 42.5025 107.832 42.1448 106.669 41.4028L107.337 39.0443C108.581 39.7863 109.958 40.1573 111.455 40.1573C112.525 40.1573 113.367 39.9188 113.969 39.4418C114.557 38.9648 114.865 38.3155 114.865 37.5205C114.865 36.805 114.624 36.1955 114.129 35.7053C113.648 35.215 112.819 34.7778 111.683 34.3405C108.567 33.1878 107.003 31.505 107.003 29.3055C107.003 27.848 107.538 26.6555 108.648 25.728C109.717 24.8005 111.188 24.3368 113.006 24.3368C114.637 24.3368 115.975 24.6018 117.058 25.1715L116.322 27.4903C115.306 26.9603 114.183 26.6953 112.913 26.6953C111.91 26.6953 111.121 26.9205 110.56 27.4108C110.065 27.8613 109.838 28.3913 109.838 29.0273C109.838 29.7163 110.105 30.2993 110.64 30.7498C111.121 31.1738 111.977 31.6243 113.234 32.1145C114.771 32.724 115.908 33.4395 116.616 34.261C117.338 35.056 117.686 36.0895 117.686 37.3085L117.713 37.2953ZM127.152 31.6375H123.997V37.8253C123.997 39.3888 124.532 40.1705 125.655 40.1705C126.163 40.1705 126.591 40.1308 126.925 40.038L127.005 42.1845C126.43 42.3965 125.695 42.5025 124.772 42.5025C123.649 42.5025 122.767 42.158 122.125 41.4823C121.496 40.8198 121.189 39.6538 121.189 38.0373V31.6508H119.317V29.5308H121.189V27.212L123.997 26.3773V29.5573H127.125V31.6773L127.152 31.6375ZM141.325 35.7848C141.325 37.7325 140.75 39.3358 139.627 40.5945C138.423 41.8798 136.872 42.529 134.92 42.529C133.049 42.529 131.551 41.9063 130.441 40.674C129.318 39.4418 128.757 37.8915 128.757 35.9968C128.757 34.0093 129.318 32.3928 130.495 31.134C131.631 29.8885 133.169 29.2525 135.134 29.2525C137.006 29.2525 138.53 29.8885 139.68 31.1075C140.75 32.3265 141.311 33.89 141.311 35.7848H141.325ZM138.357 35.8775C138.357 34.685 138.089 33.6913 137.594 32.8565C137.006 31.8363 136.15 31.3328 135.054 31.3328C133.904 31.3328 133.022 31.8363 132.433 32.8565C131.899 33.6913 131.671 34.7115 131.671 35.9305C131.671 37.0965 131.912 38.1035 132.433 38.9383C133.049 39.9718 133.904 40.4753 135.014 40.4753C136.11 40.4753 136.966 39.9453 137.581 38.925C138.089 38.0638 138.357 37.0435 138.357 35.8775ZM150.577 32.0085C150.31 31.9555 149.989 31.929 149.681 31.929C148.678 31.929 147.903 32.3265 147.355 33.0553C146.9 33.7178 146.66 34.5658 146.66 35.5728V42.2375H143.812L143.838 33.5323C143.838 32.0748 143.798 30.7498 143.731 29.5308H146.192L146.299 31.982H146.379C146.686 31.134 147.154 30.4715 147.809 29.9548C148.438 29.5043 149.12 29.2923 149.868 29.2923C150.136 29.2923 150.35 29.2923 150.564 29.332V32.0218L150.577 32.0085ZM163.332 35.2813C163.332 35.7848 163.292 36.2088 163.225 36.5665H154.668C154.708 37.8253 155.123 38.7793 155.912 39.4418C156.647 40.0248 157.583 40.3163 158.72 40.3163C159.99 40.3163 161.126 40.1175 162.196 39.72L162.624 41.7075C161.42 42.211 159.976 42.476 158.345 42.476C156.34 42.476 154.775 41.893 153.639 40.7535C152.502 39.561 151.941 38.024 151.941 36.0763C151.941 34.155 152.476 32.5518 153.519 31.2798C154.642 29.9283 156.139 29.2393 158.024 29.2393C159.869 29.2393 161.273 29.9018 162.223 31.2665C162.985 32.353 163.372 33.678 163.372 35.268L163.332 35.2813ZM160.605 34.5525C160.632 33.7178 160.444 32.989 160.07 32.3795C159.562 31.5845 158.8 31.187 157.797 31.187C156.861 31.187 156.099 31.5845 155.524 32.353C155.043 32.9625 154.762 33.678 154.668 34.5525H160.605ZM65.5816 13.75C65.5816 15.34 65.1137 16.4928 64.1644 17.2878C63.2819 18.0165 62.0251 18.3743 60.4206 18.3743C59.6184 18.3743 58.9499 18.3213 58.3883 18.2418V9.77502C59.1237 9.64252 59.9259 9.60277 60.795 9.60277C62.3326 9.60277 63.4691 9.93402 64.2713 10.5833C65.127 11.3253 65.5682 12.3853 65.5682 13.7633L65.5816 13.75ZM64.1109 13.803C64.1109 12.796 63.8435 12.0143 63.3086 11.471C62.7471 10.941 61.9716 10.676 60.9287 10.676C60.4875 10.676 60.1265 10.676 59.7922 10.7555V17.248C59.9661 17.248 60.2869 17.2745 60.7282 17.2745C61.7978 17.2745 62.6401 16.9698 63.2284 16.3868C63.79 15.7773 64.0841 14.9293 64.0841 13.7898L64.1109 13.803ZM73.4033 15.128C73.4033 16.082 73.1359 16.877 72.6011 17.4865C71.9994 18.1225 71.2373 18.4405 70.2746 18.4405C69.3387 18.4405 68.6167 18.1358 68.0685 17.513C67.5337 16.9168 67.2663 16.1483 67.2663 15.2208C67.2663 14.2668 67.5337 13.4983 68.1086 12.8623C68.6702 12.2528 69.4456 11.9348 70.3816 11.9348C71.3175 11.9348 72.0662 12.2395 72.6278 12.8623C73.1626 13.4453 73.43 14.1873 73.43 15.1413L73.4033 15.128ZM71.9593 15.1678C71.9593 14.598 71.8256 14.1078 71.5849 13.6838C71.2908 13.1935 70.8763 12.9418 70.3281 12.9418C69.7665 12.9418 69.3387 13.1803 69.0445 13.6705C68.7771 14.068 68.6702 14.598 68.6702 15.181C68.6702 15.7375 68.8039 16.241 69.0445 16.6385C69.3521 17.142 69.7665 17.3938 70.3147 17.3938C70.8495 17.3938 71.2506 17.1288 71.5582 16.6385C71.8256 16.2145 71.9593 15.711 71.9593 15.1413V15.1678ZM83.9258 12.054L81.9469 18.2815H80.65L79.8478 15.5918C79.6205 14.8895 79.4467 14.227 79.313 13.5513C79.1793 14.2403 79.0055 14.916 78.7782 15.5785L77.9225 18.2683H76.6122L74.7671 12.0408H76.2111L76.9331 14.9955C77.1069 15.6978 77.2539 16.3603 77.3743 16.983C77.508 16.4795 77.6684 15.817 77.9091 14.9955L78.8049 12.0275H79.9548L80.8105 14.9425C81.011 15.658 81.1848 16.347 81.3185 16.9963H81.3453C81.4389 16.3603 81.5859 15.6713 81.7731 14.9425L82.5486 12.0275H83.9124L83.9258 12.054ZM91.1859 18.2948H89.782V14.7173C89.782 13.6175 89.3541 13.0743 88.5118 13.0743C88.1107 13.0743 87.7631 13.2068 87.4957 13.5115C87.2282 13.8163 87.0945 14.174 87.0945 14.5715V18.2815H85.704V13.8295C85.704 13.273 85.704 12.6768 85.6639 12.0408H86.9073L86.9608 13.008H87.0009C87.1614 12.7165 87.4021 12.478 87.7229 12.266C88.1241 12.001 88.5252 11.895 89.0065 11.895C89.5948 11.895 90.0761 12.0805 90.4772 12.4648C90.9586 12.9285 91.1992 13.6175 91.1992 14.5318V18.2815L91.1859 18.2948ZM95.0633 18.2948H93.646V9.19202H95.0499L95.0633 18.2948ZM103.299 15.128C103.299 16.082 103.032 16.877 102.47 17.4865C101.882 18.1225 101.133 18.4405 100.157 18.4405C99.2482 18.4405 98.5128 18.1358 97.9646 17.513C97.4298 16.9168 97.1357 16.1483 97.1357 15.2208C97.1357 14.2668 97.4031 13.4983 97.9914 12.8623C98.5529 12.2528 99.3284 11.9348 100.264 11.9348C101.2 11.9348 101.936 12.2395 102.511 12.8623C103.045 13.4453 103.313 14.1873 103.313 15.1413L103.299 15.128ZM101.829 15.1678C101.829 14.598 101.722 14.1078 101.468 13.6838C101.16 13.1935 100.746 12.9418 100.198 12.9418C99.6359 12.9418 99.2081 13.1803 98.9139 13.6705C98.6465 14.068 98.5128 14.598 98.5128 15.181C98.5128 15.7375 98.6465 16.241 98.9139 16.6385C99.2081 17.142 99.6226 17.3938 100.171 17.3938C100.706 17.3938 101.107 17.1288 101.428 16.6385C101.695 16.2145 101.829 15.711 101.829 15.1413V15.1678ZM110.078 18.2948H108.821L108.688 17.5793H108.661C108.233 18.1358 107.618 18.4273 106.829 18.4273C106.241 18.4273 105.76 18.2418 105.399 17.8575C105.064 17.5395 104.904 17.1023 104.904 16.5988C104.904 15.8435 105.225 15.2738 105.867 14.8498C106.508 14.4523 107.417 14.2535 108.594 14.2668V14.1343C108.594 13.3128 108.153 12.902 107.284 12.902C106.655 12.902 106.107 13.061 105.639 13.3658L105.372 12.4383C105.947 12.0938 106.669 11.9083 107.511 11.9083C109.169 11.9083 109.998 12.7695 109.998 14.492V16.7975C109.998 17.4335 110.025 17.937 110.092 18.2948H110.078ZM108.607 16.1483V15.2208C107.083 15.181 106.308 15.5918 106.308 16.4663C106.308 16.7843 106.401 17.036 106.575 17.195C106.762 17.3275 107.003 17.4203 107.27 17.4203C107.578 17.4203 107.872 17.3275 108.126 17.1288C108.394 16.9433 108.554 16.6915 108.621 16.4V16.135L108.607 16.1483ZM118.034 18.2948H116.79L116.737 17.301H116.71C116.309 18.0563 115.64 18.4405 114.678 18.4405C113.915 18.4405 113.287 18.149 112.806 17.5528C112.271 16.9565 112.03 16.2013 112.03 15.2473C112.03 14.2403 112.298 13.4188 112.859 12.796C113.394 12.213 114.022 11.9215 114.798 11.9215C115.64 11.9215 116.242 12.1865 116.576 12.7695H116.603V9.19202H118.007V16.612C118.007 17.2215 118.007 17.778 118.047 18.2948H118.034ZM116.59 15.6713V14.6113C116.59 14.439 116.59 14.2933 116.549 14.1873C116.469 13.856 116.282 13.5645 116.041 13.3393C115.774 13.1008 115.453 12.9948 115.105 12.9948C114.571 12.9948 114.17 13.1935 113.862 13.6043C113.568 14.0018 113.407 14.5318 113.407 15.1943C113.407 15.8038 113.541 16.3073 113.835 16.6915C114.143 17.089 114.557 17.3143 115.065 17.3143C115.28 17.3206 115.492 17.2757 115.685 17.1835C115.879 17.0912 116.047 16.9543 116.175 16.7843C116.442 16.4795 116.576 16.0953 116.576 15.6448L116.59 15.6713ZM130.027 15.128C130.027 16.082 129.759 16.877 129.198 17.4865C128.61 18.1225 127.861 18.4405 126.885 18.4405C125.949 18.4405 125.227 18.1358 124.679 17.513C124.144 16.9168 123.85 16.1483 123.85 15.2208C123.85 14.2668 124.117 13.4983 124.705 12.8623C125.267 12.2528 126.042 11.9348 126.978 11.9348C127.914 11.9348 128.663 12.2395 129.225 12.8623C129.759 13.4453 130.027 14.1873 130.027 15.1413V15.128ZM128.556 15.1678C128.556 14.598 128.449 14.1078 128.195 13.6838C127.901 13.1935 127.486 12.9418 126.938 12.9418C126.377 12.9418 125.949 13.1803 125.655 13.6705C125.387 14.068 125.28 14.598 125.28 15.181C125.28 15.7375 125.414 16.241 125.655 16.6385C125.962 17.142 126.377 17.3938 126.925 17.3938C127.46 17.3938 127.888 17.1288 128.182 16.6385C128.449 16.2145 128.583 15.711 128.583 15.1413L128.556 15.1678ZM137.554 18.2948H136.164V14.7173C136.164 13.6175 135.736 13.0743 134.894 13.0743C134.452 13.0743 134.118 13.2068 133.864 13.5115C133.597 13.8163 133.463 14.174 133.463 14.5715V18.2815H132.099V13.8295C132.099 13.273 132.072 12.6768 132.032 12.0408H133.262L133.329 13.008H133.369C133.53 12.7165 133.771 12.478 134.091 12.266C134.466 12.001 134.894 11.895 135.348 11.895C135.937 11.895 136.418 12.0805 136.819 12.4648C137.3 12.9285 137.541 13.6175 137.541 14.5318V18.2815L137.554 18.2948ZM146.994 13.0875H145.443V16.135C145.443 16.9035 145.71 17.2878 146.245 17.2878C146.512 17.2878 146.726 17.2613 146.887 17.2215L146.927 18.2815C146.633 18.3743 146.258 18.414 145.817 18.414C145.282 18.414 144.841 18.255 144.52 17.9238C144.213 17.5925 144.052 17.036 144.052 16.241V13.0875H143.116L143.143 12.054H144.052V10.9013L145.429 10.5038V12.0275H146.98V13.061L146.994 13.0875ZM154.401 18.2948H152.997V14.7438C152.997 13.6308 152.596 13.061 151.74 13.061C151.072 13.061 150.631 13.3923 150.403 14.0415C150.336 14.174 150.323 14.3463 150.323 14.545V18.2948H148.919V9.19202H150.31V12.955H150.336C150.778 12.266 151.406 11.9215 152.208 11.9215C152.81 11.9215 153.278 12.107 153.679 12.4913C154.147 12.955 154.374 13.6573 154.374 14.5848V18.2948H154.401ZM162.049 14.8763C162.049 15.1413 162.049 15.34 162.009 15.5123H157.81C157.81 16.1218 158.024 16.5988 158.412 16.9168C158.773 17.1818 159.214 17.3408 159.789 17.3408C160.418 17.3408 160.993 17.248 161.501 17.0493L161.715 18.0165C161.126 18.2815 160.418 18.414 159.602 18.414C158.626 18.414 157.864 18.1225 157.302 17.5528C156.741 16.983 156.473 16.2278 156.473 15.2473C156.473 14.3198 156.741 13.5248 157.249 12.902C157.784 12.2395 158.519 11.895 159.455 11.895C160.351 11.895 161.059 12.2528 161.514 12.9153C161.875 13.4453 162.049 14.1078 162.049 14.8763ZM160.712 14.5185C160.739 14.121 160.645 13.75 160.444 13.4585C160.204 13.061 159.843 12.8755 159.335 12.8755C158.88 12.8755 158.506 13.061 158.225 13.4453C157.984 13.7368 157.851 14.1078 157.824 14.5053H160.725L160.712 14.5185Z" fill="white"/>
<path d="M174.082 52.175C176.85 52.175 179.163 49.9225 179.163 47.2328V6.76725C179.163 4.0775 176.85 1.825 174.082 1.825H6.32419C5.66926 1.825 5.02076 1.95284 4.41569 2.20121C3.81062 2.44958 3.26084 2.81362 2.79774 3.27255C1.86247 4.1994 1.33704 5.45648 1.33704 6.76725V47.2328C1.33704 49.949 3.58326 52.175 6.32419 52.175H174.082ZM174.082 53.5H6.32419C2.84789 53.5 0 50.6778 0 47.2328V6.76725C0 3.32225 2.83452 0.5 6.32419 0.5H174.082C177.559 0.5 180.5 3.309 180.5 6.76725V47.2328C180.5 50.6778 177.559 53.5 174.082 53.5Z" fill="#A6A6A6"/>
<path d="M354.315 0.5H187.185C183.493 0.5 180.5 3.46611 180.5 7.125V46.875C180.5 50.5339 183.493 53.5 187.185 53.5H354.315C358.007 53.5 361 50.5339 361 46.875V7.125C361 3.46611 358.007 0.5 354.315 0.5Z" fill="black"/>
<path d="M243.902 14.068C243.942 15.0485 243.581 16.0025 242.899 16.718C242.137 17.513 241.068 17.937 239.958 17.9105C238.26 17.884 236.749 16.8505 236.081 15.3135C235.452 13.7632 235.813 11.9745 237.017 10.782C237.779 9.98698 238.848 9.56298 239.958 9.58948C240.52 9.58948 241.081 9.69548 241.603 9.92073C242.084 10.1327 242.512 10.4507 242.859 10.8217L242.151 11.524C241.616 10.9012 240.814 10.5567 239.971 10.5965C239.129 10.5965 238.313 10.9277 237.725 11.524C237.123 12.1335 236.816 12.9417 236.843 13.7765C236.843 15.0352 237.578 16.188 238.741 16.6915C239.918 17.195 241.282 16.9565 242.191 16.0687C242.592 15.6315 242.859 15.0485 242.859 14.4522H239.958V13.5247H243.835C243.889 13.7102 243.902 13.9222 243.902 14.1077V14.068ZM250.026 10.7555H246.416V13.273H249.705V14.227H246.416V16.7445H250.026V17.725H245.346V9.77498H250.026V10.7555ZM254.411 17.725H253.382V10.7555H251.149V9.77498H256.711V10.7555H254.411V17.725ZM260.642 17.725V9.77498H261.671V17.725H260.642ZM266.244 17.725H265.215V10.7555H262.968V9.77498H268.477V10.7555H266.244V17.725ZM278.906 16.6915C277.301 18.2815 274.667 18.2815 273.023 16.6915C272.269 15.8915 271.85 14.8379 271.85 13.7434C271.85 12.6489 272.269 11.5952 273.023 10.7952C273.825 10.0002 274.868 9.57623 275.964 9.57623C277.088 9.57623 278.144 10.0135 278.906 10.7952C279.678 11.586 280.109 12.6431 280.109 13.7434C280.109 14.8436 279.678 15.9007 278.906 16.6915ZM273.798 16.029C275.002 17.2215 276.954 17.2215 278.157 16.029C279.36 14.7305 279.36 12.7695 278.157 11.471C276.954 10.2785 275.002 10.2785 273.798 11.471C272.595 12.7695 272.595 14.7305 273.798 16.029ZM281.553 17.725V9.77498H282.81L286.714 15.9627V9.77498H287.744V17.725H286.674L282.609 11.2325V17.725H281.553Z" fill="white" stroke="white" stroke-width="0.2"/>
<path d="M271.606 29.3188C268.477 29.3188 265.936 31.8628 265.95 34.9633C265.957 36.4592 266.562 37.8915 267.631 38.9468C268.701 40.0021 270.149 40.5945 271.659 40.5945C274.788 40.5945 277.328 38.077 277.328 34.9633C277.368 33.4528 276.766 32.0085 275.697 30.9485C274.627 29.8885 273.156 29.3055 271.632 29.332L271.606 29.3188ZM271.606 38.3685C270.188 38.4613 268.865 37.706 268.263 36.434C267.648 35.162 267.862 33.6515 268.838 32.6313C269.801 31.5978 271.298 31.2665 272.622 31.77C273.959 32.3 274.814 33.5455 274.814 34.95C274.855 35.8245 274.547 36.6725 273.932 37.335C273.33 37.971 272.488 38.342 271.606 38.3685ZM259.171 29.3188C256.016 29.3188 253.489 31.8363 253.489 34.9633C253.489 36.455 254.087 37.8857 255.151 38.9405C256.215 39.9953 257.659 40.5879 259.164 40.5879C260.67 40.5879 262.113 39.9953 263.178 38.9405C264.242 37.8857 264.84 36.455 264.84 34.9633C264.84 33.4528 264.252 32.0085 263.182 30.9485C262.113 29.8885 260.642 29.3055 259.118 29.332L259.171 29.3188ZM259.171 38.3685C257.74 38.4745 256.417 37.706 255.802 36.4473C255.187 35.1753 255.401 33.6648 256.377 32.6313C256.849 32.131 257.462 31.7818 258.136 31.6284C258.81 31.475 259.515 31.5243 260.16 31.77C261.498 32.3 262.353 33.5455 262.353 34.95C262.393 35.8245 262.086 36.6725 261.471 37.335C260.869 37.971 260.027 38.342 259.144 38.3685H259.171ZM244.33 31.0545V33.4395H250.106C250.012 34.5658 249.544 35.6258 248.769 36.4473C247.606 37.6398 245.988 38.2625 244.317 38.1963C242.637 38.1623 241.038 37.4773 239.863 36.2883C238.687 35.0992 238.028 33.5009 238.028 31.8363C238.028 30.1716 238.687 28.5733 239.863 27.3843C241.038 26.1952 242.637 25.5103 244.317 25.4763C245.948 25.4498 247.525 26.0593 248.689 27.1988L250.387 25.5028C249.593 24.7133 248.649 24.0879 247.609 23.6625C246.569 23.2372 245.455 23.0205 244.33 23.025C241.094 22.8925 238.046 24.5355 236.388 27.3048C235.574 28.657 235.145 30.2022 235.145 31.7767C235.145 33.3511 235.574 34.8963 236.388 36.2485C237.198 37.6061 238.365 38.7208 239.763 39.4743C241.161 40.2279 242.74 40.5921 244.33 40.5283C246.643 40.6608 248.876 39.7333 250.48 38.0903C251.894 36.5722 252.648 34.5635 252.579 32.4988C252.579 31.9953 252.553 31.4918 252.446 31.0015L244.343 31.081L244.33 31.0545ZM304.898 32.9095C304.556 31.8921 303.908 31.0032 303.04 30.3633C302.171 29.7234 301.126 29.3634 300.044 29.332C298.574 29.332 297.17 29.915 296.167 30.9883C295.137 32.0483 294.616 33.5058 294.696 34.9633C294.696 36.4605 295.258 37.9048 296.327 38.9648C297.397 40.0248 298.841 40.621 300.338 40.5945C302.25 40.5945 304.029 39.667 305.085 38.1035L303.146 36.7785C302.558 37.7458 301.502 38.342 300.338 38.342C299.162 38.3818 298.065 37.706 297.598 36.6195L305.219 33.519L304.924 32.936L304.898 32.9095ZM297.143 34.791C297.103 33.9695 297.384 33.148 297.945 32.5385C298.507 31.9158 299.282 31.5448 300.125 31.505C301.007 31.452 301.836 31.9025 302.237 32.6975L297.156 34.791H297.143ZM291.006 40.25H293.493V23.6875H290.993V40.25H291.006ZM286.901 30.5775H286.808C286.046 29.7295 284.963 29.2525 283.813 29.2525C280.778 29.385 278.398 31.876 278.398 34.8838C278.398 37.9048 280.804 40.3825 283.826 40.5283C284.976 40.5548 286.072 40.0778 286.821 39.2033H286.901V40.0248C286.901 42.1845 285.738 43.3373 283.866 43.3373C283.243 43.323 282.638 43.1268 282.126 42.7733C281.615 42.4197 281.22 41.9246 280.992 41.3498L278.812 42.2375C279.229 43.2208 279.93 44.06 280.827 44.6494C281.724 45.2389 282.777 45.5522 283.853 45.55C286.768 45.55 289.201 43.8275 289.201 39.6803V29.65H286.888V30.5775H286.901ZM284.04 38.3685C282.248 38.2095 280.885 36.7255 280.885 34.95C280.885 33.1745 282.248 31.6905 284.04 31.5315C284.909 31.5713 285.711 31.9688 286.286 32.5915C286.874 33.254 287.155 34.0888 287.088 34.95C287.169 35.8113 286.874 36.6725 286.286 37.3085C285.725 37.971 284.909 38.342 284.04 38.3685ZM316.61 23.6875H310.647V40.25H313.147V33.9695H316.65C318.589 34.102 320.447 33.1745 321.464 31.505C322.48 29.862 322.48 27.795 321.464 26.152C320.967 25.343 320.255 24.6852 319.406 24.2505C318.557 23.8157 317.604 23.621 316.65 23.6875H316.61ZM316.61 31.6375H313.134V25.993H316.677C318.255 25.993 319.552 27.265 319.552 28.8418C319.552 30.392 318.255 31.664 316.677 31.664L316.624 31.6243L316.61 31.6375ZM332.04 29.2525C330.168 29.1465 328.43 30.1403 327.587 31.77L329.82 32.6975C330.261 31.876 331.157 31.399 332.093 31.4785C332.735 31.399 333.377 31.5845 333.885 32.0085C334.393 32.406 334.714 32.9758 334.781 33.5985V33.784C333.978 33.36 333.082 33.148 332.173 33.148C329.767 33.148 327.36 34.473 327.36 36.858C327.413 37.918 327.895 38.872 328.657 39.561C329.419 40.25 330.449 40.5945 331.491 40.515C332.775 40.6078 334.005 39.985 334.7 38.925H334.781V40.25H337.187V33.89C337.187 30.975 334.968 29.2923 332.106 29.2923L332.053 29.2525H332.04ZM331.732 38.3288C330.93 38.3288 329.793 37.9313 329.793 36.9243C329.793 35.5993 331.211 35.1488 332.467 35.1488C333.27 35.1488 334.045 35.321 334.74 35.7053C334.656 36.4246 334.311 37.0893 333.771 37.5765C333.23 38.0636 332.53 38.3403 331.799 38.3553L331.745 38.3155L331.732 38.3288ZM345.958 29.65L343.097 36.8315H343.017L340.035 29.65H337.361L341.813 39.6935L339.273 45.2585H341.88L348.726 29.65H345.945H345.958ZM323.496 40.25H325.983V23.6875H323.483V40.25H323.496Z" fill="white"/>
<path d="M194.459 10.5038C194.017 11.0338 193.79 11.736 193.87 12.425V41.575C193.83 42.2375 194.044 42.9 194.485 43.43L194.579 43.5228L211.118 27.1987V26.8013L194.539 10.4375L194.459 10.5303V10.5038Z" fill="url(#paint0_linear_243_225)"/>
<path d="M216.6 32.6577L211.078 27.1855V26.788L216.6 21.3555L216.734 21.4085L223.285 25.092C225.157 26.152 225.157 27.8745 223.285 28.9345L216.734 32.6047L216.6 32.6577Z" fill="url(#paint1_linear_243_225)"/>
<path d="M216.734 32.5915L211.118 27L194.445 43.4963C195.248 44.1853 196.397 44.2117 197.226 43.5757L216.747 32.6047" fill="url(#paint2_linear_243_225)"/>
<path d="M216.734 21.4085L197.213 10.411C196.812 10.1062 196.317 9.94886 195.812 9.96577C195.308 9.98269 194.824 10.1729 194.445 10.5038L211.118 27L216.734 21.4085Z" fill="#00F076"/>
<path d="M354.582 52.175C357.35 52.175 359.663 49.9225 359.663 47.2328V6.76725C359.663 4.0775 357.35 1.825 354.582 1.825H186.824C185.502 1.825 184.233 2.3457 183.298 3.27255C182.362 4.1994 181.837 5.45648 181.837 6.76725V47.2328C181.837 49.949 184.083 52.175 186.824 52.175H354.582ZM354.582 53.5H186.824C183.348 53.5 180.5 50.6778 180.5 47.2328V6.76725C180.5 3.32225 183.335 0.5 186.824 0.5H354.582C358.059 0.5 361 3.309 361 6.76725V47.2328C361 50.6778 358.059 53.5 354.582 53.5Z" fill="#A6A6A6"/>
</g>
<defs>
<linearGradient id="paint0_linear_243_225" x1="1057.04" y1="10.4375" x2="1057.04" y2="3318.96" gradientUnits="userSpaceOnUse">
<stop offset="0.03938" stop-color="#00C3FF"/>
<stop offset="0.97744" stop-color="#00E1FF"/>
</linearGradient>
<linearGradient id="paint1_linear_243_225" x1="1310.13" y1="586.468" x2="-1922.83" y2="586.468" gradientUnits="userSpaceOnUse">
<stop stop-color="#FDDE31"/>
<stop offset="0.4" stop-color="#FABC31"/>
<stop offset="0.77" stop-color="#F8A431"/>
<stop offset="1" stop-color="#F79B31"/>
</linearGradient>
<linearGradient id="paint2_linear_243_225" x1="2115.77" y1="330.421" x2="17.2373" y2="3896.87" gradientUnits="userSpaceOnUse">
<stop stop-color="#FF3A44"/>
<stop offset="1" stop-color="#C4206D"/>
</linearGradient>
<clipPath id="clip0_243_225">
<rect width="361" height="53" fill="white" transform="translate(0 0.5)"/>
</clipPath>
</defs>
</svg>
