<svg width="82" height="83" viewBox="0 0 82 83" fill="none" xmlns="http://www.w3.org/2000/svg">
<g filter="url(#filter0_d_245_436)">
<circle cx="41" cy="33.5" r="21" fill="white"/>
<circle cx="41" cy="33.5" r="20.5" stroke="#2D3748"/>
</g>
<g clip-path="url(#clip0_245_436)">
<path d="M41 24.75C39.1773 24.7521 37.4298 25.4771 36.1409 26.7659C34.8521 28.0548 34.1271 29.8023 34.125 31.625C34.125 37.5078 40.375 41.9508 40.6414 42.1367C40.7465 42.2103 40.8717 42.2498 41 42.2498C41.1283 42.2498 41.2535 42.2103 41.3586 42.1367C41.625 41.9508 47.875 37.5078 47.875 31.625C47.8729 29.8023 47.1479 28.0548 45.8591 26.7659C44.5702 25.4771 42.8227 24.7521 41 24.75ZM41 29.125C41.4945 29.125 41.9778 29.2716 42.3889 29.5463C42.8 29.821 43.1205 30.2115 43.3097 30.6683C43.4989 31.1251 43.5484 31.6278 43.452 32.1127C43.3555 32.5977 43.1174 33.0431 42.7678 33.3928C42.4181 33.7424 41.9727 33.9805 41.4877 34.077C41.0028 34.1734 40.5001 34.1239 40.0433 33.9347C39.5865 33.7455 39.196 33.425 38.9213 33.0139C38.6466 32.6028 38.5 32.1195 38.5 31.625C38.5 30.962 38.7634 30.3261 39.2322 29.8572C39.7011 29.3884 40.337 29.125 41 29.125Z" fill="#FC8A06"/>
</g>
<defs>
<filter id="filter0_d_245_436" x="0" y="0.5" width="82" height="82" filterUnits="userSpaceOnUse" color-interpolation-filters="sRGB">
<feFlood flood-opacity="0" result="BackgroundImageFix"/>
<feColorMatrix in="SourceAlpha" type="matrix" values="0 0 0 0 0 0 0 0 0 0 0 0 0 0 0 0 0 0 127 0" result="hardAlpha"/>
<feOffset dy="8"/>
<feGaussianBlur stdDeviation="10"/>
<feComposite in2="hardAlpha" operator="out"/>
<feColorMatrix type="matrix" values="0 0 0 0 0.337255 0 0 0 0 0.345098 0 0 0 0 0.360784 0 0 0 0.12 0"/>
<feBlend mode="normal" in2="BackgroundImageFix" result="effect1_dropShadow_245_436"/>
<feBlend mode="normal" in="SourceGraphic" in2="effect1_dropShadow_245_436" result="shape"/>
</filter>
<clipPath id="clip0_245_436">
<rect width="20" height="20" fill="white" transform="translate(31 23.5)"/>
</clipPath>
</defs>
</svg>
