<svg width="82" height="83" viewBox="0 0 82 83" fill="none" xmlns="http://www.w3.org/2000/svg">
<g filter="url(#filter0_d_245_633)">
<circle cx="41" cy="33.5" r="21" fill="#FFE8CE"/>
<circle cx="41" cy="33.5" r="20.5" stroke="#2D3748"/>
</g>
<g clip-path="url(#clip0_245_633)">
<path d="M47.875 29.125H35.375C35.2092 29.125 35.0503 29.0592 34.9331 28.9419C34.8158 28.8247 34.75 28.6658 34.75 28.5C34.75 28.3342 34.8158 28.1753 34.9331 28.0581C35.0503 27.9408 35.2092 27.875 35.375 27.875H46C46.1658 27.875 46.3247 27.8092 46.4419 27.6919C46.5592 27.5747 46.625 27.4158 46.625 27.25C46.625 27.0842 46.5592 26.9253 46.4419 26.8081C46.3247 26.6908 46.1658 26.625 46 26.625H35.375C34.8777 26.625 34.4008 26.8225 34.0492 27.1742C33.6975 27.5258 33.5 28.0027 33.5 28.5V38.5C33.5 38.9973 33.6975 39.4742 34.0492 39.8258C34.4008 40.1775 34.8777 40.375 35.375 40.375H47.875C48.2065 40.375 48.5245 40.2433 48.7589 40.0089C48.9933 39.7745 49.125 39.4565 49.125 39.125V30.375C49.125 30.0435 48.9933 29.7255 48.7589 29.4911C48.5245 29.2567 48.2065 29.125 47.875 29.125ZM45.0625 35.375C44.8771 35.375 44.6958 35.32 44.5417 35.217C44.3875 35.114 44.2673 34.9676 44.1964 34.7963C44.1254 34.625 44.1068 34.4365 44.143 34.2546C44.1792 34.0727 44.2685 33.9057 44.3996 33.7746C44.5307 33.6435 44.6977 33.5542 44.8796 33.518C45.0615 33.4818 45.25 33.5004 45.4213 33.5714C45.5926 33.6423 45.739 33.7625 45.842 33.9167C45.945 34.0708 46 34.2521 46 34.4375C46 34.6861 45.9012 34.9246 45.7254 35.1004C45.5496 35.2762 45.3111 35.375 45.0625 35.375Z" fill="#FC8A06"/>
</g>
<defs>
<filter id="filter0_d_245_633" x="0" y="0.5" width="82" height="82" filterUnits="userSpaceOnUse" color-interpolation-filters="sRGB">
<feFlood flood-opacity="0" result="BackgroundImageFix"/>
<feColorMatrix in="SourceAlpha" type="matrix" values="0 0 0 0 0 0 0 0 0 0 0 0 0 0 0 0 0 0 127 0" result="hardAlpha"/>
<feOffset dy="8"/>
<feGaussianBlur stdDeviation="10"/>
<feComposite in2="hardAlpha" operator="out"/>
<feColorMatrix type="matrix" values="0 0 0 0 0.337255 0 0 0 0 0.345098 0 0 0 0 0.360784 0 0 0 0.12 0"/>
<feBlend mode="normal" in2="BackgroundImageFix" result="effect1_dropShadow_245_633"/>
<feBlend mode="normal" in="SourceGraphic" in2="effect1_dropShadow_245_633" result="shape"/>
</filter>
<clipPath id="clip0_245_633">
<rect width="20" height="20" fill="white" transform="translate(31 23.5)"/>
</clipPath>
</defs>
</svg>
